<svg width="0" height="0" class="hidden">
  <symbol fill="none" xmlns="http://www.w3.org/2000/svg" viewBox="0 0 32 32" id="facebook">
    <path fill-rule="evenodd" clip-rule="evenodd" d="M6 2C3.79086 2 2 3.79086 2 6V26C2 28.2091 3.79086 30 6 30H15.8331V20.4209H12.5224V16.6878H15.8331V13.9349C15.8331 10.7398 17.8366 9 20.7642 9C22.1665 9 23.371 9.10204 23.7224 9.14739V12.4868L21.6924 12.4878C20.1006 12.4878 19.7926 13.2247 19.7926 14.3049V16.6888H23.589L23.0948 20.4219H19.7926V30H26C28.2091 30 30 28.2091 30 26V6C30 3.79086 28.2091 2 26 2H6Z" fill="#505050"></path>
  </symbol>
  <symbol fill="none" xmlns="http://www.w3.org/2000/svg" viewBox="0 0 32 32" id="facebook2">
    <path fill-rule="evenodd" clip-rule="evenodd" d="M19.8953 10.99L18.4834 10.9909C17.3762 10.9909 17.1616 11.5169 17.1616 12.2884V13.9909H19.8025L19.4584 16.6581H17.1616V23.5H14.4081V16.6581H12.1056V13.9909H14.4081V12.025C14.4081 9.74219 15.8022 8.5 17.8375 8.5C18.8125 8.5 19.6506 8.57219 19.8953 8.605V10.99ZM1 31H31V1H1V31Z" fill="#505050"></path>
  </symbol>
  <symbol fill="none" xmlns="http://www.w3.org/2000/svg" viewBox="0 0 32 32" id="facebook3">
    <path fill-rule="evenodd" clip-rule="evenodd" d="M19.8953 10.99L18.4834 10.9909C17.3762 10.9909 17.1616 11.5169 17.1616 12.2884V13.9909H19.8025L19.4584 16.6581H17.1616V23.5H14.4081V16.6581H12.1056V13.9909H14.4081V12.025C14.4081 9.74219 15.8022 8.5 17.8375 8.5C18.8125 8.5 19.6506 8.57219 19.8953 8.605V10.99ZM16 1C7.71625 1 1 7.71531 1 16C1 24.2837 7.71625 31 16 31C24.2847 31 31 24.2837 31 16C31 7.71531 24.2847 1 16 1Z" fill="#505050"></path>
  </symbol>
</svg>